HIERARCHY
ROOT Hips
{
 OFFSET 0.000000 0.000000 0.000000
 CHANNELS 6 Xposition Yposition Zposition Yrotation Xrotation Zrotation
 JOINT Chest
 {
  OFFSET 0.000000 9.585900 0.002600
  CHANNELS 3 Yrotation Xrotation Zrotation
  JOINT Chest2
  {
   OFFSET 0.000000 9.601200 -0.005300
   CHANNELS 3 Yrotation Xrotation Zrotation
   JOINT Chest3
   {
    OFFSET 0.000000 9.561800 0.000000
    CHANNELS 3 Yrotation Xrotation Zrotation
    JOINT Chest4
    {
     OFFSET 0.000000 9.552100 0.000000
     CHANNELS 3 Yrotation Xrotation Zrotation
     JOINT Neck
     {
      OFFSET 0.000000 14.453000 0.000000
      CHANNELS 3 Yrotation Xrotation Zrotation
      JOINT Head
      {
       OFFSET 0.000000 8.936500 -0.011300
       CHANNELS 3 Yrotation Xrotation Zrotation
       End Site
       {
        OFFSET 0.000000 17.073600 -0.006000
       }
      }
     }
     JOINT RightCollar
     {
      OFFSET -2.921100 9.558500 0.000000
      CHANNELS 3 Yrotation Xrotation Zrotation
      JOINT RightShoulder
      {
       OFFSET -13.519700 0.000000 0.000000
       CHANNELS 3 Yrotation Xrotation Zrotation
       JOINT RightElbow
       {
        OFFSET 0.000000 -29.696600 0.000000
        CHANNELS 3 Yrotation Xrotation Zrotation
        JOINT RightWrist
        {
         OFFSET 0.000000 -24.004700 0.000000
         CHANNELS 3 Yrotation Xrotation Zrotation
         End Site
         {
          OFFSET 0.000000 -17.728500 0.000000
         }
        }
       }
      }
     }
     JOINT LeftCollar
     {
      OFFSET 2.921100 9.558500 0.000000
      CHANNELS 3 Yrotation Xrotation Zrotation
      JOINT LeftShoulder
      {
       OFFSET 13.519700 0.000000 0.000000
       CHANNELS 3 Yrotation Xrotation Zrotation
       JOINT LeftElbow
       {
        OFFSET 0.000000 -29.696600 0.000000
        CHANNELS 3 Yrotation Xrotation Zrotation
        JOINT LeftWrist
        {
         OFFSET 0.000000 -24.004700 0.000000
         CHANNELS 3 Yrotation Xrotation Zrotation
         End Site
         {
          OFFSET 0.000000 -17.728500 0.000000
         }
        }
       }
      }
     }
    }
   }
  }
 }
 JOINT RightHip
 {
  OFFSET -7.771700 -0.012900 -0.001300
  CHANNELS 3 Yrotation Xrotation Zrotation
  JOINT RightKnee
  {
   OFFSET 0.000000 -40.869800 0.001200
   CHANNELS 3 Yrotation Xrotation Zrotation
   JOINT RightAnkle
   {
    OFFSET 0.000000 -39.717900 0.002100
    CHANNELS 3 Yrotation Xrotation Zrotation
    JOINT RightToe
    {
     OFFSET 0.000000 -4.965400 11.033500
     CHANNELS 3 Yrotation Xrotation Zrotation
     End Site
     {
      OFFSET 0.000000 -1.423100 5.872300
     }
    }
   }
  }
 }
 JOINT LeftHip
 {
  OFFSET 7.771700 -0.012900 -0.001300
  CHANNELS 3 Yrotation Xrotation Zrotation
  JOINT LeftKnee
  {
   OFFSET 0.000000 -40.869800 0.001200
   CHANNELS 3 Yrotation Xrotation Zrotation
   JOINT LeftAnkle
   {
    OFFSET 0.000000 -39.717900 0.002100
    CHANNELS 3 Yrotation Xrotation Zrotation
    JOINT LeftToe
    {
     OFFSET 0.000000 -4.965400 11.033500
     CHANNELS 3 Yrotation Xrotation Zrotation
     End Site
     {
      OFFSET 0.000000 -1.423100 5.872300
     }
    }
   }
  }
 }
}
MOTION
Frames: 8
Frame Time: 0.008333
-0.934720 52.696231 35.694225 169.490096 -39.004843 -1.536245 3.854355 21.166631 1.628349 0.461936 2.864536 0.340254 0.778930 4.685291 0.575819 3.302091 18.011864 2.613477 2.182593 14.578167 -0.436709 4.315049 -8.574867 -1.650247 -6.493762 -0.645476 -3.161776 -0.252699 -2.645076 5.599792 171.022999 -85.949007 -157.504829 3.002280 4.668276 -2.969430 -3.643293 0.519060 -0.134927 9.805946 -1.687290 3.133855 158.004279 -75.757308 -177.244107 -7.610404 -0.903903 9.976901 -1.156744 -42.731102 3.954580 -127.927946 86.225178 -124.621323 -1.809520 -8.938521 -0.615631 0.567775 -0.802652 0.233950 0.104489 -38.513323 7.186245 72.868216 82.619243 62.674047 -6.067285 -12.432996 8.566347 0.612765 1.754763 0.347333
-0.928789 52.689347 35.697464 169.488157 -38.993663 -1.533175 3.878035 21.184696 1.649306 0.455792 2.855864 0.333025 0.775217 4.680728 0.576560 3.308248 18.017480 2.614360 2.182502 14.591032 -0.439644 4.302559 -8.583037 -1.650654 -6.503859 -0.661756 -3.160542 -0.184967 -2.672360 5.615888 170.919929 -85.968561 -157.444233 2.959404 4.616750 -3.025863 -3.663145 0.528903 -0.140620 9.768627 -1.743469 3.118783 157.979404 -75.828572 -177.231849 -7.628598 -0.849548 9.998982 -1.203143 -42.730314 3.947733 -128.025252 86.248915 -124.722960 -1.772933 -8.952976 -0.600372 0.549137 -0.790398 0.185227 0.117497 -38.516299 7.207766 72.714768 82.639179 62.505521 -6.080601 -12.417244 8.576392 0.621998 1.739153 0.345415
-0.924057 52.683664 35.699218 169.488122 -38.983901 -1.533716 3.885252 21.184624 1.659312 0.470177 2.879350 0.346832 0.756323 4.652901 0.559070 3.320516 18.031561 2.620502 2.184588 14.605985 -0.442572 4.304120 -8.547090 -1.650388 -6.483402 -0.659150 -3.154837 -0.141801 -2.716235 5.636037 170.915484 -85.998330 -157.451945 2.942150 4.549494 -3.157694 -3.682163 0.562241 -0.146497 9.681055 -1.832190 3.089468 157.945062 -75.913026 -177.164076 -7.646785 -0.835195 10.061807 -1.227595 -42.732916 3.934590 -128.026501 86.253923 -124.703996 -1.758464 -8.953985 -0.628370 0.556371 -0.795053 0.188339 0.133875 -38.517007 7.223399 72.571641 82.652009 62.350416 -6.083258 -12.405138 8.598101 0.612498 1.724888 0.331036
-0.920077 52.677171 35.701952 169.489799 -38.957767 -1.542007 3.894883 21.175194 1.677798 0.463643 2.866376 0.339789 0.764502 4.665616 0.565692 3.320989 18.036031 2.620450 2.187073 14.615182 -0.444638 4.310376 -8.503725 -1.647425 -6.463280 -0.662417 -3.153046 -0.097475 -2.757099 5.668478 170.738282 -86.010761 -157.297540 2.932578 4.495998 -3.303600 -3.696632 0.551799 -0.150345 9.631432 -1.854566 3.070869 157.834977 -75.966968 -177.059046 -7.657386 -0.860644 10.161878 -1.258512 -42.752750 3.917455 -128.027275 86.256494 -124.660394 -1.754874 -8.953222 -0.698640 0.584142 -0.801617 0.229775 0.148532 -38.535466 7.242441 72.449465 82.659592 62.215953 -6.071225 -12.401008 8.617622 0.596081 1.711719 0.311364
-0.916239 52.671980 35.702906 169.495016 -38.937195 -1.557834 3.902113 21.199161 1.702856 0.462204 2.842526 0.334170 0.766046 4.666300 0.566415 3.320883 18.037506 2.622005 2.201528 14.646281 -0.441237 4.308448 -8.493135 -1.647589 -6.392281 -0.653034 -3.154557 -0.105181 -2.808061 5.708300 170.348701 -86.016217 -156.931938 2.928168 4.444700 -3.457964 -3.707106 0.537342 -0.154353 9.574963 -1.869236 3.051113 157.844035 -75.998956 -177.037498 -7.632292 -0.902478 10.270118 -1.347182 -42.748188 3.916338 -128.253437 86.305991 -124.888498 -1.684960 -8.985198 -0.719049 0.535718 -0.773853 0.200147 0.156180 -38.550692 7.264795 72.343887 82.670343 62.112640 -6.084381 -12.391661 8.619518 0.601231 1.704183 0.320658
-0.913677 52.667053 35.702923 169.500828 -38.914578 -1.571066 3.902928 21.193288 1.717714 0.462427 2.850205 0.334289 0.766913 4.666202 0.566501 3.316800 18.037843 2.622319 2.212210 14.671810 -0.437855 4.317333 -8.472787 -1.649423 -6.376960 -0.672590 -3.157253 -0.056531 -2.831219 5.750451 169.980792 -85.984540 -156.578957 2.926651 4.427391 -3.613790 -3.717386 0.528795 -0.157792 9.521930 -1.884492 3.030061 157.862958 -76.025812 -177.016061 -7.602275 -0.964056 10.391545 -1.384266 -42.761516 3.913050 -128.332149 86.318838 -124.951076 -1.669718 -8.985360 -0.735607 0.542612 -0.778181 0.187357 0.158218 -38.568380 7.286157 72.257315 82.680167 62.023910 -6.097314 -12.378906 8.617959 0.615271 1.689167 0.324741
-0.910210 52.663370 35.701096 169.498465 -38.900855 -1.585322 3.911198 21.183951 1.735915 0.465145 2.891294 0.344760 0.764764 4.668172 0.566535 3.307996 18.017371 2.613623 2.222496 14.698068 -0.434957 4.330123 -8.452178 -1.653211 -6.358928 -0.696029 -3.160659 -0.015650 -2.851792 5.792817 169.213491 -85.954357 -155.856432 2.917527 4.392136 -3.723570 -3.724679 0.524857 -0.160082 9.474042 -1.899447 3.007001 157.754265 -76.073037 -176.839247 -7.599433 -1.062039 10.482253 -1.404539 -42.768717 3.927229 -128.327983 86.321939 -124.937916 -1.675019 -8.977365 -0.714826 0.553326 -0.790012 0.169291 0.148913 -38.575429 7.332634 72.172124 82.705339 61.920111 -6.113833 -12.362774 8.628756 0.619591 1.667831 0.324789
-0.908062 52.658525 35.699863 169.496983 -38.874789 -1.593349 3.915364 21.180230 1.747560 0.464937 2.893859 0.347472 0.763256 4.669732 0.566928 3.305004 18.005212 2.608339 2.228801 14.728217 -0.428861 4.345281 -8.423531 -1.658517 -6.313880 -0.710963 -3.158125 -0.014068 -2.866275 5.830494 168.419903 -85.929838 -155.104916 2.915835 4.340971 -3.820106 -3.733817 0.536408 -0.157289 9.457990 -1.918604 2.989161 157.744105 -76.085660 -176.810749 -7.559893 -1.111466 10.583257 -1.432844 -42.785540 3.922385 -128.468702 86.342230 -125.070817 -1.643540 -8.981053 -0.714890 0.527804 -0.790470 0.158596 0.137718 -38.599216 7.354649 72.150021 82.713248 61.889114 -6.113211 -12.344072 8.631622 0.628240 1.644059 0.318099
